<svg width="32" height="33" viewBox="0 0 32 33" fill="none" xmlns="http://www.w3.org/2000/svg">
<path d="M4 15.1667L9.33333 15.1667M28 15.1667L14.6667 15.1667M13.3333 19.1667L18.6667 19.1667M24 12.5L20 4.5M8 12.5L12 4.5" stroke="white" stroke-width="2" stroke-linecap="round" stroke-linejoin="round"/>
<path d="M26.6881 22.1762C26.0388 25.2068 25.7148 26.7215 24.6148 27.6108C23.5148 28.5002 21.9655 28.5002 18.8668 28.5002L13.1335 28.5002C10.0348 28.5002 8.48547 28.5002 7.3868 27.6108C6.28547 26.7215 5.96014 25.2068 5.31214 22.1762L4.74014 19.5095C3.7828 15.0388 3.3028 12.8028 4.50414 11.3188C5.70414 9.8335 7.9908 9.8335 12.5628 9.8335L19.4375 9.8335C24.0108 9.8335 26.2948 9.8335 27.4961 11.3188C28.3895 12.4255 28.3535 13.9482 27.8801 16.5002" stroke="white" stroke-width="2" stroke-linecap="round"/>
</svg>
