<svg width="32" height="33" viewBox="0 0 32 33" fill="none" xmlns="http://www.w3.org/2000/svg">
<path d="M4 15.1667L9.33333 15.1667M28 15.1667L14.6667 15.1667M13.3333 19.1667L18.6667 19.1667M24 12.5L20 4.5M8 12.5L12 4.5" stroke="#6B7280" stroke-width="2" stroke-linecap="round" stroke-linejoin="round"/>
<path d="M26.6881 22.1757C26.0388 25.2063 25.7148 26.721 24.6148 27.6103C23.5148 28.4997 21.9655 28.4997 18.8668 28.4997L13.1335 28.4997C10.0348 28.4997 8.48547 28.4997 7.3868 27.6103C6.28547 26.721 5.96014 25.2063 5.31214 22.1757L4.74014 19.509C3.7828 15.0383 3.3028 12.8023 4.50414 11.3183C5.70414 9.83301 7.9908 9.83301 12.5628 9.83301L19.4375 9.83301C24.0108 9.83301 26.2948 9.83301 27.4961 11.3183C28.3895 12.425 28.3535 13.9477 27.8801 16.4997" stroke="#6B7280" stroke-width="2" stroke-linecap="round"/>
</svg>
