<svg width="32" height="33" viewBox="0 0 32 33" fill="none" xmlns="http://www.w3.org/2000/svg">
<path d="M29.3334 16.4998C29.3334 9.13984 23.3601 3.1665 16.0001 3.1665C8.64008 3.1665 2.66675 9.13984 2.66675 16.4998C2.66675 22.9532 7.25341 28.3265 13.3334 29.5665L13.3334 20.4998L10.6667 20.4998L10.6667 16.4998L13.3334 16.4998L13.3334 13.1665C13.3334 10.5932 15.4267 8.49984 18.0001 8.49984L21.3334 8.49984L21.3334 12.4998L18.6667 12.4998C17.9334 12.4998 17.3334 13.0998 17.3334 13.8332L17.3334 16.4998L21.3334 16.4998L21.3334 20.4998L17.3334 20.4998L17.3334 29.7665C24.0667 29.0998 29.3334 23.4198 29.3334 16.4998Z" fill="white"/>
</svg>
