<svg width="33" height="32" viewBox="0 0 33 32" fill="none" xmlns="http://www.w3.org/2000/svg">
<path d="M30.0915 16.0003C30.0915 8.64033 24.1181 2.66699 16.7581 2.66699C9.39814 2.66699 3.4248 8.64033 3.4248 16.0003C3.4248 22.4537 8.01147 27.827 14.0915 29.067L14.0915 20.0003L11.4248 20.0003L11.4248 16.0003L14.0915 16.0003L14.0915 12.667C14.0915 10.0937 16.1848 8.00033 18.7581 8.00033L22.0915 8.00033L22.0915 12.0003L19.4248 12.0003C18.6915 12.0003 18.0915 12.6003 18.0915 13.3337L18.0915 16.0003L22.0915 16.0003L22.0915 20.0003L18.0915 20.0003L18.0915 29.267C24.8248 28.6003 30.0915 22.9203 30.0915 16.0003Z" fill="#4B5563"/>
</svg>
