<svg width="33" height="32" viewBox="0 0 33 32" fill="none" xmlns="http://www.w3.org/2000/svg">
<path d="M23.4248 11.333C24.5294 11.333 25.4248 10.4376 25.4248 9.33301C25.4248 8.22844 24.5294 7.33301 23.4248 7.33301C22.3202 7.33301 21.4248 8.22844 21.4248 9.33301C21.4248 10.4376 22.3202 11.333 23.4248 11.333Z" fill="#4B5563"/>
<path d="M22.0916 4C25.7716 4 28.7583 6.98667 28.7583 10.6667L28.7583 21.3333C28.7583 25.0133 25.7716 28 22.0916 28L11.425 28C7.74497 28 4.7583 25.0133 4.7583 21.3333L4.7583 10.6667C4.7583 6.98667 7.74497 4 11.425 4L16.7583 4L22.0916 4Z" stroke="#4B5563" stroke-width="2.66667" stroke-linecap="round" stroke-linejoin="round"/>
<path d="M16.7581 10.667C19.7048 10.667 22.0915 13.0537 22.0915 16.0003C22.0915 18.947 19.7048 21.3337 16.7581 21.3337C13.8115 21.3337 11.4248 18.947 11.4248 16.0003C11.4248 13.0537 13.8115 10.667 16.7581 10.667Z" stroke="#4B5563" stroke-width="2.66667" stroke-linecap="round" stroke-linejoin="round"/>
</svg>
