<svg width="32" height="33" viewBox="0 0 32 33" fill="none" xmlns="http://www.w3.org/2000/svg">
<path d="M22.6667 11.8335C23.7713 11.8335 24.6667 10.9381 24.6667 9.8335C24.6667 8.72893 23.7713 7.8335 22.6667 7.8335C21.5622 7.8335 20.6667 8.72893 20.6667 9.8335C20.6667 10.9381 21.5622 11.8335 22.6667 11.8335Z" fill="white"/>
<path d="M21.3333 4.5C25.0133 4.5 28 7.48667 28 11.1667L28 21.8333C28 25.5133 25.0133 28.5 21.3333 28.5L10.6667 28.5C6.98667 28.5 4 25.5133 4 21.8333L4 11.1667C4 7.48667 6.98667 4.5 10.6667 4.5L16 4.5L21.3333 4.5Z" stroke="white" stroke-width="2.66667" stroke-linecap="round" stroke-linejoin="round"/>
<path d="M16.0001 11.1665C18.9467 11.1665 21.3334 13.5532 21.3334 16.4998C21.3334 19.4465 18.9467 21.8332 16.0001 21.8332C13.0534 21.8332 10.6667 19.4465 10.6667 16.4998C10.6667 13.5532 13.0534 11.1665 16.0001 11.1665Z" stroke="white" stroke-width="2.66667" stroke-linecap="round" stroke-linejoin="round"/>
</svg>
