<svg width="33" height="32" viewBox="0 0 33 32" fill="none" xmlns="http://www.w3.org/2000/svg">
<path d="M16.7583 18C15.7694 18 14.8027 17.7068 13.9805 17.1574C13.1582 16.6079 12.5173 15.8271 12.1389 14.9134C11.7605 13.9998 11.6615 12.9945 11.8544 12.0246C12.0473 11.0546 12.5235 10.1637 13.2228 9.46447C13.922 8.76521 14.8129 8.289 15.7829 8.09608C16.7528 7.90315 17.7581 8.00217 18.6717 8.3806C19.5854 8.75904 20.3662 9.39991 20.9157 10.2222C21.4651 11.0444 21.7583 12.0111 21.7583 13C21.7567 14.3256 21.2294 15.5964 20.2921 16.5338C19.3547 17.4711 18.0839 17.9984 16.7583 18ZM16.7583 10C16.165 10 15.5849 10.1759 15.0916 10.5056C14.5982 10.8352 14.2137 11.3038 13.9867 11.852C13.7596 12.4001 13.7002 13.0033 13.8159 13.5853C13.9317 14.1672 14.2174 14.7018 14.637 15.1213C15.0565 15.5409 15.5911 15.8266 16.173 15.9424C16.755 16.0581 17.3582 15.9987 17.9064 15.7716C18.4545 15.5446 18.9231 15.1601 19.2527 14.6667C19.5824 14.1734 19.7583 13.5933 19.7583 13C19.7575 12.2046 19.4412 11.442 18.8787 10.8796C18.3163 10.3171 17.5537 10.0008 16.7583 10Z" fill="#4B5563"/>
<path d="M16.7583 30L8.32231 20.051C8.20509 19.9016 8.08908 19.7513 7.97431 19.6C6.53402 17.7014 5.75563 15.3831 5.75831 13C5.75831 10.0826 6.91723 7.28473 8.98013 5.22183C11.043 3.15893 13.8409 2 16.7583 2C19.6757 2 22.4736 3.15893 24.5365 5.22183C26.5994 7.28473 27.7583 10.0826 27.7583 13C27.7606 15.382 26.9826 17.6991 25.5433 19.597L25.5423 19.6C25.5423 19.6 25.2423 19.994 25.1973 20.047L16.7583 30ZM9.57131 18.395C9.57131 18.395 9.80431 18.703 9.85731 18.769L16.7583 26.908L23.6683 18.758C23.7123 18.703 23.9463 18.393 23.9473 18.392C25.1245 16.8411 25.7607 14.947 25.7583 13C25.7583 10.6131 24.8101 8.32387 23.1223 6.63604C21.4344 4.94821 19.1453 4 16.7583 4C14.3714 4 12.0822 4.94821 10.3943 6.63604C8.70652 8.32387 7.75831 10.6131 7.75831 13C7.75584 14.9483 8.39275 16.8436 9.57131 18.395Z" fill="#4B5563"/>
</svg>
