<svg width="28" height="28" viewBox="0 0 28 28" fill="none" xmlns="http://www.w3.org/2000/svg">
<g clip-path="url(#clip0_1554_19962)">
<path d="M18.5978 20.9568C18.8662 18.7647 17.4545 17.367 13.727 16.177C11.921 15.561 11.0705 14.7537 11.0903 13.6442C11.1662 12.4122 12.313 11.515 13.8343 11.4858C15.0324 11.4988 16.201 11.8595 17.1978 12.5242C17.3332 12.6082 17.4277 12.5942 17.5047 12.4775C17.6097 12.3095 17.8722 11.9023 17.9597 11.7542C18.0192 11.6608 18.0308 11.5372 17.8803 11.4275C17.6645 11.2677 17.059 10.9433 16.7335 10.8068C15.8065 10.4145 14.8106 10.2106 13.804 10.2072C11.5757 10.2165 9.82218 11.6247 9.67401 13.5042C9.57912 14.8622 10.2519 15.9616 11.6923 16.8023C11.9992 16.9797 13.6523 17.6377 14.3103 17.843C16.38 18.487 17.4545 19.642 17.2013 20.9895C16.9715 22.211 15.6858 23.0008 13.9137 23.0242C12.5102 22.9705 11.2455 22.3977 10.2655 21.6358L10.101 21.5075C9.97968 21.4142 9.84668 21.42 9.76618 21.5425C9.70785 21.6323 9.32751 22.1807 9.23185 22.3242C9.14201 22.4502 9.19101 22.5202 9.28435 22.5972C9.69268 22.939 10.2375 23.3123 10.6073 23.5013C11.6317 24.0233 12.7587 24.313 13.9078 24.3495C14.7352 24.3888 15.5612 24.2479 16.3287 23.9365C17.6062 23.394 18.4322 22.3102 18.5978 20.9568ZM14 1.6345C11.5873 1.6345 9.62035 3.9095 9.52818 6.75617L18.4707 6.75617C18.3762 3.90833 16.4103 1.63333 14 1.63333M23.1595 27.9977L23.0662 27.9988L4.65151 27.9965C3.39851 27.9498 2.47801 26.9348 2.35201 25.6737L2.34035 25.4462L1.51551 7.3325C1.51011 7.25973 1.5196 7.18663 1.5434 7.11765C1.56721 7.04868 1.60483 6.98528 1.65397 6.93134C1.70311 6.87739 1.76273 6.83404 1.82919 6.80392C1.89565 6.7738 1.96756 6.75755 2.04051 6.75617L7.84468 6.75617C7.98585 2.996 10.6867 0 14 0C17.3133 0 20.0118 2.99717 20.1542 6.755L25.9502 6.755C26.0228 6.75523 26.0946 6.77018 26.1612 6.79895C26.2279 6.82772 26.288 6.86972 26.3379 6.9224C26.3879 6.97507 26.4266 7.03734 26.4518 7.10542C26.477 7.17351 26.4881 7.246 26.4845 7.3185L25.5827 25.5045L25.5745 25.6573C25.4648 26.9337 24.4323 27.9638 23.1595 27.9977Z" fill="white"/>
</g>
<defs>
<clipPath id="clip0_1554_19962">
<rect width="28" height="28" fill="white"/>
</clipPath>
</defs>
</svg>
