<svg width="32" height="33" viewBox="0 0 32 33" fill="none" xmlns="http://www.w3.org/2000/svg">
<path d="M25.4001 7.04658C24.1775 5.81205 22.7214 4.8332 21.1167 4.16706C19.5121 3.50092 17.7908 3.16082 16.0534 3.16658C8.7734 3.16658 2.84007 9.09991 2.84007 16.3799C2.84007 18.7132 3.4534 20.9799 4.60007 22.9799L2.7334 29.8332L9.7334 27.9932C11.6667 29.0466 13.8401 29.6066 16.0534 29.6066C23.3334 29.6066 29.2667 23.6732 29.2667 16.3932C29.2667 12.8599 27.8934 9.53991 25.4001 7.04658ZM16.0534 27.3666C14.0801 27.3666 12.1467 26.8332 10.4534 25.8332L10.0534 25.5932L5.8934 26.6866L7.00007 22.6332L6.7334 22.2199C5.6368 20.4693 5.05463 18.4456 5.0534 16.3799C5.0534 10.3266 9.98673 5.39324 16.0401 5.39324C18.9734 5.39324 21.7334 6.53991 23.8001 8.61991C24.8236 9.63839 25.6346 10.85 26.1862 12.1843C26.7378 13.5187 27.019 14.9494 27.0134 16.3932C27.0401 22.4466 22.1067 27.3666 16.0534 27.3666ZM22.0801 19.1532C21.7467 18.9932 20.1201 18.1932 19.8267 18.0732C19.5201 17.9666 19.3067 17.9132 19.0801 18.2332C18.8534 18.5666 18.2267 19.3132 18.0401 19.5266C17.8534 19.7532 17.6534 19.7799 17.3201 19.6066C16.9867 19.4466 15.9201 19.0866 14.6667 17.9666C13.6801 17.0866 13.0267 16.0066 12.8267 15.6732C12.6401 15.3399 12.8001 15.1666 12.9734 14.9932C13.1201 14.8466 13.3067 14.6066 13.4667 14.4199C13.6267 14.2332 13.6934 14.0866 13.8001 13.8732C13.9067 13.6466 13.8534 13.4599 13.7734 13.2999C13.6934 13.1399 13.0267 11.5132 12.7601 10.8466C12.4934 10.2066 12.2134 10.2866 12.0134 10.2732L11.3734 10.2732C11.1467 10.2732 10.8001 10.3532 10.4934 10.6866C10.2001 11.0199 9.34673 11.8199 9.34673 13.4466C9.34673 15.0732 10.5334 16.6466 10.6934 16.8599C10.8534 17.0866 13.0267 20.4199 16.3334 21.8466C17.1201 22.1932 17.7334 22.3932 18.2134 22.5399C19.0001 22.7932 19.7201 22.7532 20.2934 22.6732C20.9334 22.5799 22.2534 21.8732 22.5201 21.0999C22.8001 20.3266 22.8001 19.6732 22.7067 19.5266C22.6134 19.3799 22.4134 19.3132 22.0801 19.1532Z" fill="white"/>
</svg>
