<svg width="33" height="32" viewBox="0 0 33 32" fill="none" xmlns="http://www.w3.org/2000/svg">
<path d="M26.1584 6.54706C24.9358 5.31254 23.4797 4.33369 21.875 3.66755C20.2704 3.00141 18.5491 2.66131 16.8117 2.66706C9.5317 2.66706 3.59837 8.6004 3.59837 15.8804C3.59837 18.2137 4.2117 20.4804 5.35837 22.4804L3.4917 29.3337L10.4917 27.4937C12.425 28.5471 14.5984 29.1071 16.8117 29.1071C24.0917 29.1071 30.025 23.1737 30.025 15.8937C30.025 12.3604 28.6517 9.0404 26.1584 6.54706ZM16.8117 26.8671C14.8384 26.8671 12.905 26.3337 11.2117 25.3337L10.8117 25.0937L6.6517 26.1871L7.75837 22.1337L7.4917 21.7204C6.3951 19.9698 5.81293 17.9461 5.8117 15.8804C5.8117 9.82706 10.745 4.89373 16.7984 4.89373C19.7317 4.89373 22.4917 6.0404 24.5584 8.1204C25.5819 9.13888 26.3929 10.3505 26.9445 11.6848C27.4961 13.0192 27.7773 14.4498 27.7717 15.8937C27.7984 21.9471 22.865 26.8671 16.8117 26.8671ZM22.8384 18.6537C22.505 18.4937 20.8784 17.6937 20.585 17.5737C20.2784 17.4671 20.065 17.4137 19.8384 17.7337C19.6117 18.0671 18.985 18.8137 18.7984 19.0271C18.6117 19.2537 18.4117 19.2804 18.0784 19.1071C17.745 18.9471 16.6784 18.5871 15.425 17.4671C14.4384 16.5871 13.785 15.5071 13.585 15.1737C13.3984 14.8404 13.5584 14.6671 13.7317 14.4937C13.8784 14.3471 14.065 14.1071 14.225 13.9204C14.385 13.7337 14.4517 13.5871 14.5584 13.3737C14.665 13.1471 14.6117 12.9604 14.5317 12.8004C14.4517 12.6404 13.785 11.0137 13.5184 10.3471C13.2517 9.70706 12.9717 9.78706 12.7717 9.77373L12.1317 9.77373C11.905 9.77373 11.5584 9.85373 11.2517 10.1871C10.9584 10.5204 10.105 11.3204 10.105 12.9471C10.105 14.5737 11.2917 16.1471 11.4517 16.3604C11.6117 16.5871 13.785 19.9204 17.0917 21.3471C17.8784 21.6937 18.4917 21.8937 18.9717 22.0404C19.7584 22.2937 20.4784 22.2537 21.0517 22.1737C21.6917 22.0804 23.0117 21.3737 23.2784 20.6004C23.5584 19.8271 23.5584 19.1737 23.465 19.0271C23.3717 18.8804 23.1717 18.8137 22.8384 18.6537Z" fill="#4B5563"/>
</svg>
